<?xml version="1.0" encoding="UTF-8" standalone="no"?>
<!-- Created with Inkscape (http://www.inkscape.org/) -->

<svg
   xmlns:dc="http://purl.org/dc/elements/1.1/"
   xmlns:cc="http://creativecommons.org/ns#"
   xmlns:rdf="http://www.w3.org/1999/02/22-rdf-syntax-ns#"
   xmlns:svg="http://www.w3.org/2000/svg"
   xmlns="http://www.w3.org/2000/svg"
   xmlns:sodipodi="http://sodipodi.sourceforge.net/DTD/sodipodi-0.dtd"
   xmlns:inkscape="http://www.inkscape.org/namespaces/inkscape"
   width="629.55359"
   height="330.54095"
   id="svg2"
   version="1.1"
   inkscape:version="0.47 r22583"
   sodipodi:docname="เอกสารใหม่ 1">
  <defs
     id="defs4">
    <inkscape:perspective
       sodipodi:type="inkscape:persp3d"
       inkscape:vp_x="0 : 526.18109 : 1"
       inkscape:vp_y="0 : 1000 : 0"
       inkscape:vp_z="744.09448 : 526.18109 : 1"
       inkscape:persp3d-origin="372.04724 : 350.78739 : 1"
       id="perspective10" />
    <inkscape:perspective
       id="perspective2824"
       inkscape:persp3d-origin="0.5 : 0.33333333 : 1"
       inkscape:vp_z="1 : 0.5 : 1"
       inkscape:vp_y="0 : 1000 : 0"
       inkscape:vp_x="0 : 0.5 : 1"
       sodipodi:type="inkscape:persp3d" />
    <inkscape:perspective
       id="perspective2838"
       inkscape:persp3d-origin="0.5 : 0.33333333 : 1"
       inkscape:vp_z="1 : 0.5 : 1"
       inkscape:vp_y="0 : 1000 : 0"
       inkscape:vp_x="0 : 0.5 : 1"
       sodipodi:type="inkscape:persp3d" />
  </defs>
  <sodipodi:namedview
     id="base"
     pagecolor="#ffffff"
     bordercolor="#666666"
     borderopacity="1.0"
     inkscape:pageopacity="0.0"
     inkscape:pageshadow="2"
     inkscape:zoom="1.2500922"
     inkscape:cx="314.77679"
     inkscape:cy="165.27048"
     inkscape:document-units="px"
     inkscape:current-layer="layer1"
     showgrid="false"
     inkscape:window-width="1280"
     inkscape:window-height="949"
     inkscape:window-x="-9"
     inkscape:window-y="-9"
     inkscape:window-maximized="1" />
  <metadata
     id="metadata7">
    <rdf:RDF>
      <cc:Work
         rdf:about="">
        <dc:format>image/svg+xml</dc:format>
        <dc:type
           rdf:resource="http://purl.org/dc/dcmitype/StillImage" />
        <dc:title></dc:title>
      </cc:Work>
    </rdf:RDF>
  </metadata>
  <g
     inkscape:label="Layer 1"
     inkscape:groupmode="layer"
     id="layer1"
     transform="translate(-84.352903,-629.06378)">
    <g
       id="g3681"
       transform="translate(-7.7039691,192.59923)">
      <path
         sodipodi:nodetypes="ccccc"
         id="path2847"
         d="M 94.914015,502.00551 157.77117,700.57694 720.62831,574.86265 574.04656,436.96455 94.914015,502.00551 z"
         style="fill:#000000;stroke:#000000;stroke-width:1px;stroke-linecap:butt;stroke-linejoin:miter;stroke-opacity:1" />
      <path
         sodipodi:nodetypes="ccccc"
         id="path2851"
         d="m 157.48927,700.97105 1.42857,65.87503 551.62117,-119.037 11.07143,-72.85714 -564.12117,126.01911 z"
         style="fill:#333333;stroke:none" />
      <path
         sodipodi:nodetypes="ccccc"
         id="path2853"
         d="M 94.199729,501.29122 92.056872,539.14837 159.19973,767.00551 157.65894,700.57694 94.199729,501.29122 z"
         style="fill:#333333;stroke:none" />
      <path
         id="path2855"
         d="m 151.67405,546.55126 31.29266,77.87838 103.4885,-18.81523 -34.7101,-74.92729 -100.07106,15.86414 z"
         style="fill:#ffffff;stroke:#000000;stroke-width:0.42097029px;stroke-linecap:butt;stroke-linejoin:miter;stroke-opacity:1"
         sodipodi:nodetypes="ccccc" />
      <path
         sodipodi:nodetypes="ccccc"
         style="fill:#ffffff;stroke:#000000;stroke-width:0.42097029px;stroke-linecap:butt;stroke-linejoin:miter;stroke-opacity:1"
         d="m 493.23411,489.89696 50.67812,63.35698 96.95146,-19.13434 -56.46149,-60.21896 -91.16809,15.99632 z"
         id="path2857" />
      <path
         sodipodi:type="arc"
         style="fill:#000000;fill-opacity:1;stroke:none"
         id="path3669"
         sodipodi:cx="265.01654"
         sodipodi:cy="565.47131"
         sodipodi:rx="12.32635"
         sodipodi:ry="12.32635"
         d="m 277.34289,565.47131 c 0,6.80766 -5.51869,12.32635 -12.32635,12.32635 -6.80765,0 -12.32635,-5.51869 -12.32635,-12.32635 0,-6.80765 5.5187,-12.32635 12.32635,-12.32635 6.80766,0 12.32635,5.5187 12.32635,12.32635 z"
         transform="matrix(1.25,0,0,1.25,179.50248,-183.73966)" />
      <path
         sodipodi:nodetypes="csc"
         id="path2859"
         d="m 261.57894,625.48395 c 0,0 -34.18511,-1.80681 -58.85122,-42.94921 -19.46962,-32.47478 -0.7716,-55.52273 -0.7716,-55.52273"
         style="fill:none;stroke:#000000;stroke-width:32.83374405;stroke-linecap:butt;stroke-linejoin:miter;stroke-miterlimit:4;stroke-opacity:1;stroke-dasharray:none" />
      <path
         style="fill:none;stroke:#000000;stroke-width:32.83374405;stroke-linecap:butt;stroke-linejoin:miter;stroke-miterlimit:4;stroke-opacity:1;stroke-dasharray:none"
         d="m 581.10115,554.01408 c 0,0 7.90391,-33.30788 -24.61581,-68.57232 -25.66868,-27.83517 -53.0531,-16.39324 -53.0531,-16.39324"
         id="path3633"
         sodipodi:nodetypes="csc" />
      <g
         transform="matrix(1.4860025,-0.3117954,0.22304977,1.8328741,-484.8617,-312.97546)"
         id="text3646"
         style="font-size:40px;font-style:normal;font-weight:normal;fill:#ffffff;fill-opacity:1;stroke:none;font-family:Bitstream Vera Sans">
        <path
           id="path3651"
           d="m 636.82001,638.30522 -11.81333,-24.82839 4.00829,0.0313 7.9782,18.03229 c 0.6419,1.44487 1.18485,2.79896 1.62882,4.06229 0.3796,-1.34689 0.82919,-2.69324 1.34878,-4.03906 l 6.85249,-17.91653 3.77925,0.0295 -9.98417,24.65827 z" />
        <path
           id="path3653"
           d="m 655.04822,638.44748 -0.97185,-24.74378 3.7029,0.0289 0.39908,10.16081 14.54439,0.11351 -0.39909,-10.16081 3.70292,0.0289 0.97184,24.74378 -3.7029,-0.0289 -0.45808,-11.66299 -14.54439,-0.11351 0.45808,11.66299 z" />
        <path
           id="path3655"
           d="m 681.61066,630.70749 3.48233,-0.24279 c 0.21404,1.23904 0.63884,2.25756 1.27443,3.05556 0.63558,0.79801 1.59923,1.44672 2.89093,1.94612 1.29169,0.49941 2.73283,0.75531 4.32344,0.76772 1.41244,0.011 2.65217,-0.1649 3.71919,-0.52778 1.06701,-0.36289 1.85185,-0.86578 2.35454,-1.50866 0.50264,-0.64288 0.73895,-1.3469 0.70891,-2.11206 -0.0305,-0.77641 -0.31162,-1.45634 -0.84336,-2.03982 -0.53177,-0.58345 -1.39072,-1.07666 -2.57685,-1.47964 -0.76094,-0.26465 -2.43731,-0.67988 -5.02914,-1.24569 -2.59185,-0.56578 -4.41261,-1.09462 -5.46231,-1.58654 -1.36041,-0.62929 -2.38629,-1.40502 -3.07762,-2.32721 -0.69136,-0.92216 -1.05934,-1.95149 -1.10398,-3.08798 -0.0491,-1.24899 0.30592,-2.41328 1.06494,-3.49289 0.75901,-1.07957 1.8973,-1.89467 3.4149,-2.44529 1.5176,-0.55057 3.21802,-0.81852 5.10129,-0.80384 2.07413,0.0162 3.91492,0.32586 5.52237,0.92893 1.60741,0.60314 2.85995,1.48188 3.7576,2.63626 0.89762,1.1544 1.40676,2.45761 1.5274,3.90964 l -3.54091,0.20859 c -0.25233,-1.56554 -0.94452,-2.75207 -2.07656,-3.55959 -1.13209,-0.80748 -2.77337,-1.21963 -4.92384,-1.23644 -2.23956,-0.0175 -3.85725,0.3327 -4.85308,1.05046 -0.99585,0.71779 -1.47366,1.58867 -1.43344,2.61261 0.0349,0.88895 0.42629,1.62317 1.17415,2.20267 0.73512,0.57945 2.61921,1.18191 5.65226,1.80737 3.03304,0.6255 5.11829,1.16766 6.25577,1.62648 1.65481,0.67661 2.89034,1.52711 3.70656,2.55148 0.8162,1.0244 1.25037,2.20048 1.30254,3.52825 0.0516,1.31651 -0.32587,2.55375 -1.13266,3.71171 -0.80683,1.15796 -1.99602,2.0542 -3.56754,2.68875 -1.57156,0.63454 -3.35622,0.94402 -5.35399,0.92842 -2.53225,-0.0198 -4.66691,-0.36264 -6.40401,-1.02863 -1.73712,-0.66598 -3.11814,-1.65822 -4.14307,-2.97671 -1.02493,-1.31849 -1.59533,-2.80496 -1.71119,-4.45946 z" />
      </g>
      <path
         transform="matrix(1.25,0,0,1.25,-63.17255,-144.44942)"
         d="m 277.34289,565.47131 c 0,6.80766 -5.51869,12.32635 -12.32635,12.32635 -6.80765,0 -12.32635,-5.51869 -12.32635,-12.32635 0,-6.80765 5.5187,-12.32635 12.32635,-12.32635 6.80766,0 12.32635,5.5187 12.32635,12.32635 z"
         sodipodi:ry="12.32635"
         sodipodi:rx="12.32635"
         sodipodi:cy="565.47131"
         sodipodi:cx="265.01654"
         id="path3667"
         style="fill:#000000;fill-opacity:1;stroke:none"
         sodipodi:type="arc" />
      <path
         sodipodi:nodetypes="ccccc"
         style="fill:#ffffff;stroke:#000000;stroke-width:0.42097029px;stroke-linecap:butt;stroke-linejoin:miter;stroke-opacity:1"
         d="m 273.20983,526.06966 35.14464,74.02639 219.04804,-42.69753 -51.65883,-64.14173 -202.53385,32.81287 z"
         id="path2849" />
      <path
         id="path3659"
         d="M 293.13603,535.04066 473.40891,505.76557"
         style="fill:none;stroke:#000000;stroke-width:2.4000001;stroke-linecap:butt;stroke-linejoin:miter;stroke-miterlimit:4;stroke-opacity:1;stroke-dasharray:none" />
      <path
         style="fill:none;stroke:#000000;stroke-width:2.4000001;stroke-linecap:butt;stroke-linejoin:miter;stroke-miterlimit:4;stroke-opacity:1;stroke-dasharray:none"
         d="M 298.91401,547.36701 479.18689,518.09192"
         id="path3661" />
      <path
         id="path3663"
         d="M 305.84758,558.92296 486.12046,529.64787"
         style="fill:none;stroke:#000000;stroke-width:2.4000001;stroke-linecap:butt;stroke-linejoin:miter;stroke-miterlimit:4;stroke-opacity:1;stroke-dasharray:none" />
      <path
         style="fill:none;stroke:#000000;stroke-width:2.4000001;stroke-linecap:butt;stroke-linejoin:miter;stroke-miterlimit:4;stroke-opacity:1;stroke-dasharray:none"
         d="M 313.16635,572.01971 493.43923,542.74462"
         id="path3665" />
      <path
         sodipodi:nodetypes="ccscscsccc"
         id="path3671"
         d="m 180.27288,707.99476 1.54079,38.51984 c 0,0 0.7704,3.85199 2.31119,5.39278 1.5408,1.54079 385.19846,-83.97326 385.19846,-83.97326 0,0 2.31119,1.5408 5.39278,-3.08158 3.08158,-4.62239 0,-36.20866 0,-36.20866 0,0 1.54079,-0.7704 -2.31119,-3.08159 -3.85199,-2.31119 -383.65767,77.81008 -383.65767,77.81008 l -4.62238,0.7704 -3.85198,3.85199 z"
         style="fill:#ffffff;stroke:#000000;stroke-width:1px;stroke-linecap:butt;stroke-linejoin:miter;stroke-opacity:1" />
      <path
         id="path3675"
         d="m 178.73208,753.44818 -11.55595,2.31119 -0.7704,-14.25234 11.55596,-2.31119 0.77039,14.25234 z"
         style="fill:#000000;stroke:#000000;stroke-width:1px;stroke-linecap:butt;stroke-linejoin:miter;stroke-opacity:1" />
      <path
         id="path3677"
         d="m 191.05843,716.46913 368.24973,-73.9581"
         style="fill:none;stroke:#000000;stroke-width:1px;stroke-linecap:butt;stroke-linejoin:miter;stroke-opacity:1" />
      <path
         id="path3679"
         d="M 192.59923,734.95865 559.30816,656.37817"
         style="fill:none;stroke:#000000;stroke-width:1px;stroke-linecap:butt;stroke-linejoin:miter;stroke-opacity:1" />
    </g>
  </g>
</svg>
